<svg width="1600" height="520" viewBox="0 0 1600 520" fill="none" xmlns="http://www.w3.org/2000/svg">
  <defs>
    <linearGradient id="bg" x1="0" y1="0" x2="1600" y2="520" gradientUnits="userSpaceOnUse">
      <stop stop-color="#F8FBFF"/>
      <stop offset="1" stop-color="#EEF4FB"/>
    </linearGradient>
    <linearGradient id="navy" x1="0" y1="0" x2="1" y2="1">
      <stop stop-color="#1D4ED8"/>
      <stop offset="1" stop-color="#0F172A"/>
    </linearGradient>
  </defs>

  <rect width="1600" height="520" rx="28" fill="url(#bg)"/>
  <text x="72" y="76" fill="#0F172A" font-size="42" font-family="Segoe UI, Inter, Arial, sans-serif" font-weight="700">🧩 Harness Architecture</text>
  <text x="72" y="116" fill="#475569" font-size="22" font-family="Segoe UI, Inter, Arial, sans-serif">terminal interaction, runtime control, tool-use, plugin/MCP ecosystems, memory, and evolution bridges in one visible workspace</text>

  <g transform="translate(72 170)">
    <rect width="194" height="126" rx="18" fill="#111827"/>
    <text x="28" y="54" fill="#F8FAFC" font-size="30" font-family="Segoe UI, Inter, Arial, sans-serif" font-weight="700">User</text>
    <text x="28" y="88" fill="#CBD5E1" font-size="20" font-family="Segoe UI, Inter, Arial, sans-serif">CLI / TUI prompt</text>
  </g>

  <path d="M286 233H358" stroke="#3B82F6" stroke-width="8" stroke-linecap="round"/>
  <path d="M340 217L368 233L340 249" fill="#3B82F6"/>

  <g transform="translate(378 130)">
    <rect width="246" height="206" rx="20" fill="#FFFFFF" stroke="#D6E3F3" stroke-width="2"/>
    <rect x="22" y="18" width="116" height="28" rx="8" fill="url(#navy)"/>
    <text x="80" y="37" fill="white" font-size="14" text-anchor="middle" font-family="Consolas, monospace" font-weight="700">RUNTIME</text>
    <text x="24" y="84" fill="#0F172A" font-size="30" font-family="Segoe UI, Inter, Arial, sans-serif" font-weight="700">Harness Runtime</text>
    <text x="24" y="120" fill="#334155" font-size="20" font-family="Segoe UI, Inter, Arial, sans-serif">• query loop</text>
    <text x="24" y="148" fill="#334155" font-size="20" font-family="Segoe UI, Inter, Arial, sans-serif">• approvals / permissions</text>
    <text x="24" y="176" fill="#334155" font-size="20" font-family="Segoe UI, Inter, Arial, sans-serif">• task and session control</text>
    <text x="24" y="204" fill="#334155" font-size="20" font-family="Segoe UI, Inter, Arial, sans-serif">• prompt and command activation</text>
  </g>

  <path d="M642 233H714" stroke="#3B82F6" stroke-width="8" stroke-linecap="round"/>
  <path d="M696 217L724 233L696 249" fill="#3B82F6"/>

  <g transform="translate(734 96)">
    <rect width="336" height="274" rx="20" fill="#FFFFFF" stroke="#D6E3F3" stroke-width="2"/>
    <text x="24" y="52" fill="#0F172A" font-size="30" font-family="Segoe UI, Inter, Arial, sans-serif" font-weight="700">Visible Harness Surfaces</text>
    <rect x="24" y="82" width="126" height="48" rx="14" fill="#E0F2FE"/><text x="87" y="112" text-anchor="middle" fill="#0F172A" font-size="20" font-family="Segoe UI, Inter, Arial, sans-serif" font-weight="700">Tools</text>
    <rect x="170" y="82" width="142" height="48" rx="14" fill="#DBEAFE"/><text x="241" y="112" text-anchor="middle" fill="#0F172A" font-size="20" font-family="Segoe UI, Inter, Arial, sans-serif" font-weight="700">Commands</text>
    <rect x="24" y="146" width="126" height="48" rx="14" fill="#CCFBF1"/><text x="87" y="176" text-anchor="middle" fill="#0F172A" font-size="20" font-family="Segoe UI, Inter, Arial, sans-serif" font-weight="700">Skills</text>
    <rect x="170" y="146" width="142" height="48" rx="14" fill="#EDE9FE"/><text x="241" y="176" text-anchor="middle" fill="#0F172A" font-size="20" font-family="Segoe UI, Inter, Arial, sans-serif" font-weight="700">Agents</text>
    <rect x="24" y="210" width="126" height="48" rx="14" fill="#FFEDD5"/><text x="87" y="240" text-anchor="middle" fill="#0F172A" font-size="20" font-family="Segoe UI, Inter, Arial, sans-serif" font-weight="700">Plugins</text>
    <rect x="170" y="210" width="142" height="48" rx="14" fill="#F3E8FF"/><text x="241" y="240" text-anchor="middle" fill="#0F172A" font-size="20" font-family="Segoe UI, Inter, Arial, sans-serif" font-weight="700">MCP</text>
  </g>

  <path d="M1088 233H1160" stroke="#3B82F6" stroke-width="8" stroke-linecap="round"/>
  <path d="M1142 217L1170 233L1142 249" fill="#3B82F6"/>

  <g transform="translate(1180 110)">
    <rect width="348" height="246" rx="20" fill="#111827"/>
    <text x="24" y="52" fill="#F8FAFC" font-size="30" font-family="Segoe UI, Inter, Arial, sans-serif" font-weight="700">Long-Horizon State</text>
    <text x="24" y="96" fill="#CBD5E1" font-size="21" font-family="Segoe UI, Inter, Arial, sans-serif">• memory and durable instructions</text>
    <text x="24" y="128" fill="#CBD5E1" font-size="21" font-family="Segoe UI, Inter, Arial, sans-serif">• archived sessions and task records</text>
    <text x="24" y="160" fill="#CBD5E1" font-size="21" font-family="Segoe UI, Inter, Arial, sans-serif">• doctor, analytics, and promotion state</text>
    <text x="24" y="192" fill="#CBD5E1" font-size="21" font-family="Segoe UI, Inter, Arial, sans-serif">• evolution bridge and operator planning</text>
    <text x="24" y="224" fill="#67E8F9" font-size="21" font-family="Segoe UI, Inter, Arial, sans-serif">harness + evidence + control surface</text>
  </g>
</svg>
