<svg width="320" height="320" viewBox="0 0 320 320" fill="none" xmlns="http://www.w3.org/2000/svg">
  <defs>
    <linearGradient id="ring" x1="0" y1="0" x2="1" y2="1">
      <stop stop-color="#67E8F9"/>
      <stop offset="1" stop-color="#2563EB"/>
    </linearGradient>
    <linearGradient id="core" x1="0" y1="0" x2="1" y2="1">
      <stop stop-color="#0F172A"/>
      <stop offset="1" stop-color="#1E293B"/>
    </linearGradient>
  </defs>

  <rect width="320" height="320" rx="48" fill="#F8FBFF"/>
  <circle cx="160" cy="160" r="92" fill="url(#core)"/>
  <circle cx="160" cy="160" r="108" stroke="url(#ring)" stroke-width="10"/>
  <circle cx="160" cy="56" r="10" fill="#67E8F9"/>
  <circle cx="76" cy="100" r="10" fill="#67E8F9"/>
  <circle cx="244" cy="100" r="10" fill="#67E8F9"/>
  <circle cx="96" cy="244" r="10" fill="#67E8F9"/>
  <circle cx="224" cy="244" r="10" fill="#67E8F9"/>
  <path d="M160 66L160 98M84 104L112 122M236 104L208 122M102 236L122 208M218 236L198 208" stroke="#38BDF8" stroke-width="6" stroke-linecap="round"/>
  <path d="M160 116L184 152H168L176 200L136 164H152L144 116H160Z" fill="#38BDF8"/>
  <text x="160" y="282" text-anchor="middle" fill="#0F172A" font-size="22" font-family="Segoe UI, Inter, Arial, sans-serif" font-weight="700">EvoHarness</text>
</svg>
