<svg width="1600" height="520" viewBox="0 0 1600 520" fill="none" xmlns="http://www.w3.org/2000/svg">
  <defs>
    <linearGradient id="bg" x1="0" y1="0" x2="1600" y2="520" gradientUnits="userSpaceOnUse">
      <stop stop-color="#0F172A"/>
      <stop offset="1" stop-color="#111827"/>
    </linearGradient>
    <linearGradient id="cyan" x1="0" y1="0" x2="1" y2="1">
      <stop stop-color="#67E8F9"/>
      <stop offset="1" stop-color="#22D3EE"/>
    </linearGradient>
    <linearGradient id="violet" x1="0" y1="0" x2="1" y2="1">
      <stop stop-color="#C4B5FD"/>
      <stop offset="1" stop-color="#8B5CF6"/>
    </linearGradient>
    <linearGradient id="green" x1="0" y1="0" x2="1" y2="1">
      <stop stop-color="#4ADE80"/>
      <stop offset="1" stop-color="#14B8A6"/>
    </linearGradient>
    <linearGradient id="red" x1="0" y1="0" x2="1" y2="1">
      <stop stop-color="#FB7185"/>
      <stop offset="1" stop-color="#F97316"/>
    </linearGradient>
  </defs>

  <rect width="1600" height="520" rx="28" fill="url(#bg)"/>
  <text x="72" y="76" fill="#F8FAFC" font-size="42" font-family="Segoe UI, Inter, Arial, sans-serif" font-weight="700">🧠 Controlled Self-Evolution Pipeline</text>
  <text x="72" y="116" fill="#93C5FD" font-size="22" font-family="Segoe UI, Inter, Arial, sans-serif">from archived runtime evidence to bounded operator choice, candidate generation, validation, and promotion control</text>

  <g transform="translate(72 170)">
    <rect width="214" height="182" rx="20" fill="#111827" stroke="#334155" stroke-width="2"/>
    <rect x="22" y="20" width="94" height="28" rx="8" fill="url(#cyan)"/>
    <text x="69" y="39" fill="white" font-size="14" text-anchor="middle" font-family="Consolas, monospace" font-weight="700">EVIDENCE</text>
    <text x="24" y="82" fill="#F8FAFC" font-size="28" font-family="Segoe UI, Inter, Arial, sans-serif" font-weight="700">Sessions + Traces</text>
    <text x="24" y="118" fill="#CBD5E1" font-size="20" font-family="Segoe UI, Inter, Arial, sans-serif">• archived runtime turns</text>
    <text x="24" y="146" fill="#CBD5E1" font-size="20" font-family="Segoe UI, Inter, Arial, sans-serif">• tool histories and failures</text>
    <text x="24" y="174" fill="#CBD5E1" font-size="20" font-family="Segoe UI, Inter, Arial, sans-serif">• workspace-state evidence</text>
  </g>

  <path d="M302 260H374" stroke="#67E8F9" stroke-width="8" stroke-linecap="round"/>
  <path d="M356 244L384 260L356 276" fill="#67E8F9"/>

  <g transform="translate(390 170)">
    <rect width="214" height="182" rx="20" fill="#111827" stroke="#334155" stroke-width="2"/>
    <rect x="22" y="20" width="90" height="28" rx="8" fill="url(#violet)"/>
    <text x="67" y="39" fill="white" font-size="14" text-anchor="middle" font-family="Consolas, monospace" font-weight="700">ANALYSIS</text>
    <text x="24" y="82" fill="#F8FAFC" font-size="28" font-family="Segoe UI, Inter, Arial, sans-serif" font-weight="700">Operator Proposal</text>
    <text x="24" y="118" fill="#CBD5E1" font-size="20" font-family="Segoe UI, Inter, Arial, sans-serif">• stop / distill_memory</text>
    <text x="24" y="146" fill="#CBD5E1" font-size="20" font-family="Segoe UI, Inter, Arial, sans-serif">• revise_command / revise_skill</text>
    <text x="24" y="174" fill="#CBD5E1" font-size="20" font-family="Segoe UI, Inter, Arial, sans-serif">• grow_ecosystem</text>
  </g>

  <path d="M620 260H692" stroke="#A78BFA" stroke-width="8" stroke-linecap="round"/>
  <path d="M674 244L702 260L674 276" fill="#A78BFA"/>

  <g transform="translate(708 170)">
    <rect width="214" height="182" rx="20" fill="#111827" stroke="#334155" stroke-width="2"/>
    <rect x="22" y="20" width="98" height="28" rx="8" fill="url(#cyan)"/>
    <text x="71" y="39" fill="white" font-size="14" text-anchor="middle" font-family="Consolas, monospace" font-weight="700">CANDIDATE</text>
    <text x="24" y="82" fill="#F8FAFC" font-size="28" font-family="Segoe UI, Inter, Arial, sans-serif" font-weight="700">Patch Bundle</text>
    <text x="24" y="118" fill="#CBD5E1" font-size="20" font-family="Segoe UI, Inter, Arial, sans-serif">• markdown assets</text>
    <text x="24" y="146" fill="#CBD5E1" font-size="20" font-family="Segoe UI, Inter, Arial, sans-serif">• runtime code changes</text>
    <text x="24" y="174" fill="#CBD5E1" font-size="20" font-family="Segoe UI, Inter, Arial, sans-serif">• ecosystem expansion</text>
  </g>

  <path d="M938 260H1010" stroke="#22D3EE" stroke-width="8" stroke-linecap="round"/>
  <path d="M992 244L1020 260L992 276" fill="#22D3EE"/>

  <g transform="translate(1026 170)">
    <rect width="214" height="182" rx="20" fill="#111827" stroke="#334155" stroke-width="2"/>
    <rect x="22" y="20" width="108" height="28" rx="8" fill="url(#green)"/>
    <text x="76" y="39" fill="white" font-size="14" text-anchor="middle" font-family="Consolas, monospace" font-weight="700">VALIDATION</text>
    <text x="24" y="82" fill="#F8FAFC" font-size="28" font-family="Segoe UI, Inter, Arial, sans-serif" font-weight="700">Promotion Gate</text>
    <text x="24" y="118" fill="#CBD5E1" font-size="20" font-family="Segoe UI, Inter, Arial, sans-serif">• replay and regression checks</text>
    <text x="24" y="146" fill="#CBD5E1" font-size="20" font-family="Segoe UI, Inter, Arial, sans-serif">• doctor and ecosystem health</text>
    <text x="24" y="174" fill="#CBD5E1" font-size="20" font-family="Segoe UI, Inter, Arial, sans-serif">• promotion policy review</text>
  </g>

  <path d="M1256 260H1328" stroke="#4ADE80" stroke-width="8" stroke-linecap="round"/>
  <path d="M1310 244L1338 260L1310 276" fill="#4ADE80"/>

  <g transform="translate(1344 140)">
    <rect width="184" height="106" rx="18" fill="#111827" stroke="#334155" stroke-width="2"/>
    <rect x="18" y="18" width="104" height="26" rx="8" fill="url(#green)"/>
    <text x="70" y="36" fill="white" font-size="13" text-anchor="middle" font-family="Consolas, monospace" font-weight="700">PROMOTE</text>
    <text x="20" y="70" fill="#F8FAFC" font-size="22" font-family="Segoe UI, Inter, Arial, sans-serif" font-weight="700">Promoted Workspace</text>
    <text x="20" y="94" fill="#CBD5E1" font-size="16" font-family="Segoe UI, Inter, Arial, sans-serif">validated evolution path</text>
  </g>

  <g transform="translate(1344 268)">
    <rect width="184" height="106" rx="18" fill="#111827" stroke="#334155" stroke-width="2"/>
    <rect x="18" y="18" width="108" height="26" rx="8" fill="url(#red)"/>
    <text x="72" y="36" fill="white" font-size="13" text-anchor="middle" font-family="Consolas, monospace" font-weight="700">ROLLBACK</text>
    <text x="20" y="70" fill="#F8FAFC" font-size="22" font-family="Segoe UI, Inter, Arial, sans-serif" font-weight="700">Rollback Path</text>
    <text x="20" y="94" fill="#CBD5E1" font-size="16" font-family="Segoe UI, Inter, Arial, sans-serif">candidate retained or reverted</text>
  </g>
</svg>
