<svg width="1600" height="360" viewBox="0 0 1600 360" fill="none" xmlns="http://www.w3.org/2000/svg">
  <defs>
    <linearGradient id="title" x1="292" y1="82" x2="1270" y2="188" gradientUnits="userSpaceOnUse">
      <stop stop-color="#2563EB"/>
      <stop offset="0.55" stop-color="#3B82F6"/>
      <stop offset="1" stop-color="#334155"/>
    </linearGradient>
    <linearGradient id="panel" x1="78" y1="86" x2="280" y2="242" gradientUnits="userSpaceOnUse">
      <stop stop-color="#0B1220"/>
      <stop offset="1" stop-color="#18233D"/>
    </linearGradient>
    <linearGradient id="accent" x1="92" y1="104" x2="280" y2="242" gradientUnits="userSpaceOnUse">
      <stop stop-color="#5EEAD4"/>
      <stop offset="1" stop-color="#38BDF8"/>
    </linearGradient>
    <filter id="shadow" x="0" y="0" width="1600" height="360" filterUnits="userSpaceOnUse" color-interpolation-filters="sRGB">
      <feOffset dy="10"/>
      <feGaussianBlur stdDeviation="16"/>
      <feColorMatrix type="matrix" values="0 0 0 0 0.113725 0 0 0 0 0.156863 0 0 0 0 0.239216 0 0 0 0.18 0"/>
      <feBlend mode="normal" in2="BackgroundImageFix" result="effect1_dropShadow_0_1"/>
      <feBlend mode="normal" in="SourceGraphic" in2="effect1_dropShadow_0_1" result="shape"/>
    </filter>
  </defs>

  <g filter="url(#shadow)">
    <rect x="18" y="18" width="1564" height="324" rx="28" fill="#F8FBFF"/>
    <rect x="18.75" y="18.75" width="1562.5" height="322.5" rx="27.25" stroke="#D9E4F3" stroke-width="1.5"/>
  </g>

  <g opacity="0.9">
    <circle cx="86" cy="74" r="10" fill="#67E8F9"/>
    <circle cx="126" cy="46" r="10" fill="#67E8F9"/>
    <circle cx="168" cy="74" r="10" fill="#67E8F9"/>
    <circle cx="208" cy="46" r="10" fill="#67E8F9"/>
    <circle cx="248" cy="74" r="10" fill="#67E8F9"/>
    <circle cx="124" cy="102" r="10" fill="#67E8F9"/>
    <circle cx="206" cy="102" r="10" fill="#67E8F9"/>
    <path d="M86 74L126 46L168 74L208 46L248 74L206 102L168 74L124 102L86 74Z" stroke="#38BDF8" stroke-width="3"/>
  </g>

  <g>
    <rect x="82" y="92" width="252" height="168" rx="18" fill="url(#panel)" stroke="url(#accent)" stroke-width="3"/>
    <rect x="82" y="92" width="252" height="32" rx="18" fill="#20283B"/>
    <circle cx="110" cy="108" r="5" fill="#FB7185"/>
    <circle cx="130" cy="108" r="5" fill="#FBBF24"/>
    <circle cx="150" cy="108" r="5" fill="#4ADE80"/>
    <text x="105" y="168" fill="#5EEAD4" font-size="24" font-family="Consolas, Menlo, Monaco, monospace" font-weight="700">EVO</text>
    <text x="105" y="206" fill="#38BDF8" font-size="24" font-family="Consolas, Menlo, Monaco, monospace" font-weight="700">HARNESS</text>
    <text x="105" y="228" fill="#CBD5E1" font-size="13" font-family="Consolas, Menlo, Monaco, monospace">terminal-native  -  markdown-first</text>
    <text x="105" y="248" fill="#94A3B8" font-size="13" font-family="Consolas, Menlo, Monaco, monospace">self-evolving  (^_^)/</text>
  </g>

  <text x="374" y="154" fill="url(#title)" font-size="118" font-family="Segoe UI, Inter, Arial, sans-serif" font-weight="800">EvoHarness</text>
  <text x="382" y="210" fill="#0F172A" font-size="28" font-family="Segoe UI, Inter, Arial, sans-serif">Terminal-Native Agent Harness</text>
  <text x="382" y="252" fill="#2563EB" font-size="22" font-family="Segoe UI, Inter, Arial, sans-serif">Coding workflows  -  plugins  -  MCP  -  approvals  -  controlled self-evolution</text>
  <text x="382" y="292" fill="#60A5FA" font-size="20" font-family="Segoe UI, Inter, Arial, sans-serif">make the harness feel alive, not just available  \(^o^)/</text>
</svg>
